<mxfile host="app.diagrams.net" modified="2024-01-09T02:10:50.909Z" agent="Mozilla/5.0 (Windows NT 10.0; Win64; x64) AppleWebKit/537.36 (KHTML, like Gecko) Chrome/120.0.0.0 Safari/537.36 Edg/120.0.0.0" etag="Jc_6REpW_1AvIzY2rdM4" version="22.1.16" type="github">
  <diagram name="ページ1" id="qkXRaQuu1xS7nbxDsZPN">
    <mxGraphModel dx="719" dy="398" grid="1" gridSize="10" guides="1" tooltips="1" connect="1" arrows="1" fold="1" page="1" pageScale="1" pageWidth="827" pageHeight="1169" math="0" shadow="0">
      <root>
        <mxCell id="0" />
        <mxCell id="1" parent="0" />
        <mxCell id="bLfK2yB55-KlpLb1q896-67" value="" style="shape=cylinder3;whiteSpace=wrap;html=1;boundedLbl=1;backgroundOutline=1;size=15;fontSize=14;fontStyle=1;fontColor=#FFFFFF;fillColor=#4D4D4D;strokeColor=default;" parent="1" vertex="1">
          <mxGeometry x="640" y="429" width="120" height="50" as="geometry" />
        </mxCell>
        <mxCell id="bLfK2yB55-KlpLb1q896-68" value="Model" style="rounded=1;whiteSpace=wrap;html=1;strokeColor=none;fillColor=#006600;fontColor=#FFFFFF;fontSize=16;fontStyle=1" parent="1" vertex="1">
          <mxGeometry x="457" y="430" width="120" height="50" as="geometry" />
        </mxCell>
        <mxCell id="bLfK2yB55-KlpLb1q896-69" value="Controller" style="rounded=1;whiteSpace=wrap;html=1;strokeColor=none;fillColor=#006600;fontColor=#FFFFFF;fontSize=16;fontStyle=1" parent="1" vertex="1">
          <mxGeometry x="260" y="490" width="120" height="50" as="geometry" />
        </mxCell>
        <mxCell id="bLfK2yB55-KlpLb1q896-70" value="View" style="rounded=1;whiteSpace=wrap;html=1;strokeColor=none;fillColor=#006600;fontColor=#FFFFFF;fontSize=16;fontStyle=1" parent="1" vertex="1">
          <mxGeometry x="457" y="550" width="120" height="50" as="geometry" />
        </mxCell>
        <mxCell id="bLfK2yB55-KlpLb1q896-71" value="" style="verticalLabelPosition=bottom;html=1;verticalAlign=top;align=center;strokeColor=none;fillColor=#333333;shape=mxgraph.azure.user;" parent="1" vertex="1">
          <mxGeometry x="76.25" y="940" width="47.5" height="50" as="geometry" />
        </mxCell>
        <mxCell id="bLfK2yB55-KlpLb1q896-73" value="①ログイン&lt;br style=&quot;font-size: 12px;&quot;&gt;　情報送信&lt;br&gt;(Request)" style="text;html=1;strokeColor=none;fillColor=none;align=left;verticalAlign=middle;whiteSpace=wrap;rounded=0;fontSize=12;fontStyle=0" parent="1" vertex="1">
          <mxGeometry x="32" y="710" width="100" height="30" as="geometry" />
        </mxCell>
        <mxCell id="bLfK2yB55-KlpLb1q896-74" value="⑨画面表示&lt;br&gt;(Response)" style="text;html=1;strokeColor=none;fillColor=none;align=left;verticalAlign=middle;whiteSpace=wrap;rounded=0;fontSize=12;fontStyle=0" parent="1" vertex="1">
          <mxGeometry x="32" y="779" width="77" height="33" as="geometry" />
        </mxCell>
        <mxCell id="bLfK2yB55-KlpLb1q896-76" value="" style="endArrow=classic;html=1;rounded=0;strokeWidth=3;" parent="1" edge="1">
          <mxGeometry width="50" height="50" relative="1" as="geometry">
            <mxPoint x="115" y="770" as="sourcePoint" />
            <mxPoint x="25" y="770" as="targetPoint" />
          </mxGeometry>
        </mxCell>
        <mxCell id="bLfK2yB55-KlpLb1q896-77" value="" style="endArrow=classic;html=1;rounded=0;entryX=0;entryY=0.25;entryDx=0;entryDy=0;strokeWidth=3;" parent="1" edge="1">
          <mxGeometry width="50" height="50" relative="1" as="geometry">
            <mxPoint x="386" y="483" as="sourcePoint" />
            <mxPoint x="453" y="443" as="targetPoint" />
          </mxGeometry>
        </mxCell>
        <mxCell id="bLfK2yB55-KlpLb1q896-78" value="" style="endArrow=classic;html=1;rounded=0;strokeWidth=3;exitX=0;exitY=0.75;exitDx=0;exitDy=0;" parent="1" edge="1">
          <mxGeometry width="50" height="50" relative="1" as="geometry">
            <mxPoint x="453" y="463" as="sourcePoint" />
            <mxPoint x="386" y="503" as="targetPoint" />
          </mxGeometry>
        </mxCell>
        <mxCell id="bLfK2yB55-KlpLb1q896-79" value="" style="endArrow=classic;html=1;rounded=0;entryX=0;entryY=0.25;entryDx=0;entryDy=0;strokeWidth=3;" parent="1" edge="1">
          <mxGeometry width="50" height="50" relative="1" as="geometry">
            <mxPoint x="390" y="530" as="sourcePoint" />
            <mxPoint x="453" y="570" as="targetPoint" />
          </mxGeometry>
        </mxCell>
        <mxCell id="bLfK2yB55-KlpLb1q896-80" value="" style="endArrow=classic;html=1;rounded=0;strokeWidth=3;exitX=0;exitY=0.75;exitDx=0;exitDy=0;" parent="1" edge="1">
          <mxGeometry width="50" height="50" relative="1" as="geometry">
            <mxPoint x="453" y="590" as="sourcePoint" />
            <mxPoint x="386" y="550" as="targetPoint" />
          </mxGeometry>
        </mxCell>
        <mxCell id="bLfK2yB55-KlpLb1q896-81" value="" style="endArrow=classic;html=1;rounded=0;strokeWidth=3;" parent="1" edge="1">
          <mxGeometry width="50" height="50" relative="1" as="geometry">
            <mxPoint x="590" y="442" as="sourcePoint" />
            <mxPoint x="640" y="442" as="targetPoint" />
          </mxGeometry>
        </mxCell>
        <mxCell id="bLfK2yB55-KlpLb1q896-82" value="" style="endArrow=classic;html=1;rounded=0;strokeWidth=3;exitX=0;exitY=0.75;exitDx=0;exitDy=0;" parent="1" edge="1">
          <mxGeometry width="50" height="50" relative="1" as="geometry">
            <mxPoint x="637" y="460" as="sourcePoint" />
            <mxPoint x="590" y="460" as="targetPoint" />
          </mxGeometry>
        </mxCell>
        <mxCell id="bLfK2yB55-KlpLb1q896-83" value="" style="endArrow=classic;html=1;rounded=0;strokeWidth=3;" parent="1" edge="1">
          <mxGeometry width="50" height="50" relative="1" as="geometry">
            <mxPoint x="590" y="567" as="sourcePoint" />
            <mxPoint x="640" y="567" as="targetPoint" />
          </mxGeometry>
        </mxCell>
        <mxCell id="bLfK2yB55-KlpLb1q896-84" value="" style="endArrow=classic;html=1;rounded=0;strokeWidth=3;exitX=0;exitY=0.75;exitDx=0;exitDy=0;" parent="1" edge="1">
          <mxGeometry width="50" height="50" relative="1" as="geometry">
            <mxPoint x="637" y="585" as="sourcePoint" />
            <mxPoint x="590" y="585" as="targetPoint" />
          </mxGeometry>
        </mxCell>
        <mxCell id="bLfK2yB55-KlpLb1q896-85" value="ユーザ&lt;br&gt;(画面閲覧者)" style="text;html=1;strokeColor=none;fillColor=none;align=center;verticalAlign=middle;whiteSpace=wrap;rounded=0;fontSize=12;fontStyle=1" parent="1" vertex="1">
          <mxGeometry x="50" y="991" width="100" height="30" as="geometry" />
        </mxCell>
        <mxCell id="bLfK2yB55-KlpLb1q896-86" value="②ログイン&lt;br&gt;　情報転送" style="text;html=1;strokeColor=none;fillColor=none;align=left;verticalAlign=middle;whiteSpace=wrap;rounded=0;fontSize=12;fontStyle=1" parent="1" vertex="1">
          <mxGeometry x="330" y="440" width="100" height="30" as="geometry" />
        </mxCell>
        <mxCell id="bLfK2yB55-KlpLb1q896-87" value="⑤ユーザー&lt;br&gt;　情報転送" style="text;html=1;strokeColor=none;fillColor=none;align=left;verticalAlign=middle;whiteSpace=wrap;rounded=0;fontSize=12;fontStyle=1" parent="1" vertex="1">
          <mxGeometry x="430" y="480" width="90" height="30" as="geometry" />
        </mxCell>
        <mxCell id="bLfK2yB55-KlpLb1q896-88" value="③ユーザー&lt;br&gt;　情報照会" style="text;html=1;strokeColor=none;fillColor=none;align=left;verticalAlign=middle;whiteSpace=wrap;rounded=0;fontSize=12;fontStyle=1" parent="1" vertex="1">
          <mxGeometry x="577" y="400" width="83" height="30" as="geometry" />
        </mxCell>
        <mxCell id="bLfK2yB55-KlpLb1q896-89" value="④照会結果&lt;br&gt;　送信" style="text;html=1;strokeColor=none;fillColor=none;align=left;verticalAlign=middle;whiteSpace=wrap;rounded=0;fontSize=12;fontStyle=1" parent="1" vertex="1">
          <mxGeometry x="577" y="479" width="83" height="30" as="geometry" />
        </mxCell>
        <mxCell id="bLfK2yB55-KlpLb1q896-90" value="⑥ログイン後の&lt;br&gt;　ユーザー画面照会" style="text;html=1;strokeColor=none;fillColor=none;align=left;verticalAlign=middle;whiteSpace=wrap;rounded=0;fontSize=12;fontStyle=1" parent="1" vertex="1">
          <mxGeometry x="430" y="520" width="110" height="30" as="geometry" />
        </mxCell>
        <mxCell id="bLfK2yB55-KlpLb1q896-91" value="⑧ユーザー画面&lt;br&gt;　送信" style="text;html=1;strokeColor=none;fillColor=none;align=left;verticalAlign=middle;whiteSpace=wrap;rounded=0;fontSize=12;fontStyle=1" parent="1" vertex="1">
          <mxGeometry x="330" y="570" width="100" height="30" as="geometry" />
        </mxCell>
        <mxCell id="bLfK2yB55-KlpLb1q896-92" value="⑦HTML/CSS等&lt;br&gt;　の情報連携" style="text;html=1;strokeColor=none;fillColor=none;align=left;verticalAlign=middle;whiteSpace=wrap;rounded=0;fontSize=12;fontStyle=1" parent="1" vertex="1">
          <mxGeometry x="577" y="520" width="100" height="30" as="geometry" />
        </mxCell>
        <mxCell id="bLfK2yB55-KlpLb1q896-93" value="Database" style="text;html=1;strokeColor=none;fillColor=none;align=center;verticalAlign=middle;whiteSpace=wrap;rounded=0;fontStyle=1;fontColor=#FFFFFF;fontSize=16;" parent="1" vertex="1">
          <mxGeometry x="661" y="440" width="86" height="30" as="geometry" />
        </mxCell>
        <mxCell id="bLfK2yB55-KlpLb1q896-97" value="画面表示" style="strokeWidth=2;html=1;shape=mxgraph.flowchart.display;whiteSpace=wrap;fillColor=#4D4D4D;strokeColor=none;fontColor=#FFFFFF;fontStyle=1;fontSize=15;" parent="1" vertex="1">
          <mxGeometry x="640" y="550" width="120" height="50" as="geometry" />
        </mxCell>
        <mxCell id="7YtSxur7-LAXrawJJjc7-26" value="" style="rounded=0;whiteSpace=wrap;html=1;" vertex="1" parent="1">
          <mxGeometry x="180" y="899.5" width="220" height="200" as="geometry" />
        </mxCell>
        <mxCell id="7YtSxur7-LAXrawJJjc7-30" value="&amp;nbsp; Controller" style="text;html=1;strokeColor=none;fillColor=#000000;align=left;verticalAlign=middle;whiteSpace=wrap;rounded=0;fontSize=12;fontStyle=0;fontColor=#FFFFFF;" vertex="1" parent="1">
          <mxGeometry x="180" y="899.5" width="220" height="20" as="geometry" />
        </mxCell>
        <mxCell id="7YtSxur7-LAXrawJJjc7-49" value="" style="rounded=0;whiteSpace=wrap;html=1;" vertex="1" parent="1">
          <mxGeometry x="460" y="1009.5" width="220" height="110" as="geometry" />
        </mxCell>
        <mxCell id="7YtSxur7-LAXrawJJjc7-50" value="&amp;nbsp; View" style="text;html=1;strokeColor=none;fillColor=#000000;align=left;verticalAlign=middle;whiteSpace=wrap;rounded=0;fontSize=12;fontStyle=0;fontColor=#FFFFFF;" vertex="1" parent="1">
          <mxGeometry x="460" y="1009.5" width="220" height="20" as="geometry" />
        </mxCell>
        <mxCell id="7YtSxur7-LAXrawJJjc7-53" value="" style="rounded=0;whiteSpace=wrap;html=1;" vertex="1" parent="1">
          <mxGeometry x="460" y="880" width="220" height="110" as="geometry" />
        </mxCell>
        <mxCell id="7YtSxur7-LAXrawJJjc7-54" value="&amp;nbsp; Models" style="text;html=1;strokeColor=none;fillColor=#000000;align=left;verticalAlign=middle;whiteSpace=wrap;rounded=0;fontSize=12;fontStyle=0;fontColor=#FFFFFF;" vertex="1" parent="1">
          <mxGeometry x="460" y="880" width="220" height="20" as="geometry" />
        </mxCell>
        <mxCell id="7YtSxur7-LAXrawJJjc7-52" value="" style="rounded=0;whiteSpace=wrap;html=1;strokeColor=#ff8000;" vertex="1" parent="1">
          <mxGeometry x="200" y="940" width="170" height="60" as="geometry" />
        </mxCell>
        <mxCell id="7YtSxur7-LAXrawJJjc7-63" value="&amp;nbsp; ユーザからの入力を処理し、&lt;br&gt;&amp;nbsp; ModelとViewを制御します。" style="text;html=1;strokeColor=none;fillColor=none;align=left;verticalAlign=top;whiteSpace=wrap;rounded=0;" vertex="1" parent="1">
          <mxGeometry x="200" y="960" width="170" height="40" as="geometry" />
        </mxCell>
        <mxCell id="7YtSxur7-LAXrawJJjc7-51" value="urls.py" style="text;html=1;strokeColor=none;fillColor=#FF8000;align=left;verticalAlign=middle;whiteSpace=wrap;rounded=0;fontSize=12;fontStyle=0" vertex="1" parent="1">
          <mxGeometry x="200" y="940" width="170" height="20" as="geometry" />
        </mxCell>
        <mxCell id="7YtSxur7-LAXrawJJjc7-65" value="" style="rounded=0;whiteSpace=wrap;html=1;strokeColor=#ff8000;" vertex="1" parent="1">
          <mxGeometry x="200" y="1030.25" width="170" height="60" as="geometry" />
        </mxCell>
        <mxCell id="7YtSxur7-LAXrawJJjc7-66" value="views.py" style="text;html=1;strokeColor=none;fillColor=#FF8000;align=left;verticalAlign=middle;whiteSpace=wrap;rounded=0;fontSize=12;fontStyle=0" vertex="1" parent="1">
          <mxGeometry x="200" y="1030.25" width="170" height="20" as="geometry" />
        </mxCell>
        <mxCell id="7YtSxur7-LAXrawJJjc7-86" style="edgeStyle=orthogonalEdgeStyle;rounded=0;orthogonalLoop=1;jettySize=auto;html=1;entryX=0;entryY=0.75;entryDx=0;entryDy=0;" edge="1" parent="1" target="7YtSxur7-LAXrawJJjc7-69">
          <mxGeometry relative="1" as="geometry">
            <mxPoint x="370" y="1040" as="sourcePoint" />
            <Array as="points">
              <mxPoint x="370" y="1040" />
              <mxPoint x="420" y="1040" />
              <mxPoint x="420" y="935" />
            </Array>
          </mxGeometry>
        </mxCell>
        <mxCell id="7YtSxur7-LAXrawJJjc7-67" value="&amp;nbsp; ユーザからの入力を処理し、&lt;br&gt;&amp;nbsp; ModelとViewを制御します。" style="text;html=1;strokeColor=none;fillColor=none;align=left;verticalAlign=top;whiteSpace=wrap;rounded=0;" vertex="1" parent="1">
          <mxGeometry x="200" y="1050.25" width="170" height="40" as="geometry" />
        </mxCell>
        <mxCell id="7YtSxur7-LAXrawJJjc7-68" value="" style="rounded=0;whiteSpace=wrap;html=1;strokeColor=#ff8000;" vertex="1" parent="1">
          <mxGeometry x="480" y="919.5" width="170" height="60" as="geometry" />
        </mxCell>
        <mxCell id="7YtSxur7-LAXrawJJjc7-69" value="model.py" style="text;html=1;strokeColor=none;fillColor=#FF8000;align=left;verticalAlign=middle;whiteSpace=wrap;rounded=0;fontSize=12;fontStyle=0" vertex="1" parent="1">
          <mxGeometry x="480" y="919.5" width="170" height="20" as="geometry" />
        </mxCell>
        <mxCell id="7YtSxur7-LAXrawJJjc7-87" style="edgeStyle=orthogonalEdgeStyle;rounded=0;orthogonalLoop=1;jettySize=auto;html=1;exitX=0;exitY=0.5;exitDx=0;exitDy=0;entryX=1;entryY=0.25;entryDx=0;entryDy=0;" edge="1" parent="1" source="7YtSxur7-LAXrawJJjc7-70" target="7YtSxur7-LAXrawJJjc7-67">
          <mxGeometry relative="1" as="geometry">
            <Array as="points">
              <mxPoint x="440" y="960" />
              <mxPoint x="440" y="1060" />
            </Array>
          </mxGeometry>
        </mxCell>
        <mxCell id="7YtSxur7-LAXrawJJjc7-70" value="&amp;nbsp; データベースデータの&lt;br&gt;&amp;nbsp; 管理・制御をします。" style="text;html=1;strokeColor=none;fillColor=none;align=left;verticalAlign=top;whiteSpace=wrap;rounded=0;" vertex="1" parent="1">
          <mxGeometry x="480" y="939.5" width="150" height="40" as="geometry" />
        </mxCell>
        <mxCell id="7YtSxur7-LAXrawJJjc7-71" value="" style="rounded=0;whiteSpace=wrap;html=1;strokeColor=#ff8000;" vertex="1" parent="1">
          <mxGeometry x="480" y="1049" width="170" height="60" as="geometry" />
        </mxCell>
        <mxCell id="7YtSxur7-LAXrawJJjc7-72" value="templates" style="text;html=1;strokeColor=none;fillColor=#FF8000;align=left;verticalAlign=middle;whiteSpace=wrap;rounded=0;fontSize=12;fontStyle=0" vertex="1" parent="1">
          <mxGeometry x="480" y="1049" width="170" height="20" as="geometry" />
        </mxCell>
        <mxCell id="7YtSxur7-LAXrawJJjc7-97" style="edgeStyle=orthogonalEdgeStyle;rounded=0;orthogonalLoop=1;jettySize=auto;html=1;exitX=0;exitY=0.75;exitDx=0;exitDy=0;" edge="1" parent="1" source="7YtSxur7-LAXrawJJjc7-73">
          <mxGeometry relative="1" as="geometry">
            <mxPoint x="100" y="1030" as="targetPoint" />
            <Array as="points">
              <mxPoint x="430" y="1100" />
              <mxPoint x="430" y="1120" />
              <mxPoint x="100" y="1120" />
            </Array>
          </mxGeometry>
        </mxCell>
        <mxCell id="7YtSxur7-LAXrawJJjc7-73" value="&amp;nbsp; ユーザが見ることができる&lt;br&gt;&amp;nbsp; 画面を表示します。" style="text;html=1;strokeColor=none;fillColor=none;align=left;verticalAlign=top;whiteSpace=wrap;rounded=0;" vertex="1" parent="1">
          <mxGeometry x="480" y="1069" width="170" height="40" as="geometry" />
        </mxCell>
        <mxCell id="7YtSxur7-LAXrawJJjc7-80" value="" style="fillColor=#666666;verticalLabelPosition=bottom;sketch=0;html=1;strokeColor=#ffffff;verticalAlign=top;align=center;points=[[0.145,0.145,0],[0.5,0,0],[0.855,0.145,0],[1,0.5,0],[0.855,0.855,0],[0.5,1,0],[0.145,0.855,0],[0,0.5,0]];pointerEvents=1;shape=mxgraph.cisco_safe.compositeIcon;bgIcon=ellipse;resIcon=mxgraph.cisco_safe.capability.database;" vertex="1" parent="1">
          <mxGeometry x="740" y="915" width="70" height="70" as="geometry" />
        </mxCell>
        <mxCell id="bLfK2yB55-KlpLb1q896-72" value="" style="endArrow=classic;html=1;rounded=0;strokeWidth=1;entryX=0;entryY=0.25;entryDx=0;entryDy=0;" parent="1" edge="1" target="7YtSxur7-LAXrawJJjc7-63">
          <mxGeometry width="50" height="50" relative="1" as="geometry">
            <mxPoint x="130" y="969" as="sourcePoint" />
            <mxPoint x="170" y="964.5" as="targetPoint" />
          </mxGeometry>
        </mxCell>
        <mxCell id="7YtSxur7-LAXrawJJjc7-81" value="" style="endArrow=classic;html=1;rounded=0;strokeWidth=1;entryX=0.5;entryY=0;entryDx=0;entryDy=0;exitX=0.5;exitY=1;exitDx=0;exitDy=0;" edge="1" parent="1" source="7YtSxur7-LAXrawJJjc7-63" target="7YtSxur7-LAXrawJJjc7-66">
          <mxGeometry width="50" height="50" relative="1" as="geometry">
            <mxPoint x="78" y="1071" as="sourcePoint" />
            <mxPoint x="200" y="1070" as="targetPoint" />
          </mxGeometry>
        </mxCell>
        <mxCell id="7YtSxur7-LAXrawJJjc7-93" value="" style="endArrow=classic;html=1;rounded=0;strokeWidth=1;" edge="1" parent="1">
          <mxGeometry width="50" height="50" relative="1" as="geometry">
            <mxPoint x="736" y="961.88" as="sourcePoint" />
            <mxPoint x="650" y="962" as="targetPoint" />
          </mxGeometry>
        </mxCell>
        <mxCell id="7YtSxur7-LAXrawJJjc7-94" value="" style="endArrow=classic;html=1;rounded=0;strokeWidth=1;" edge="1" parent="1">
          <mxGeometry width="50" height="50" relative="1" as="geometry">
            <mxPoint x="650" y="937" as="sourcePoint" />
            <mxPoint x="738" y="937" as="targetPoint" />
          </mxGeometry>
        </mxCell>
        <mxCell id="7YtSxur7-LAXrawJJjc7-95" value="" style="endArrow=classic;html=1;rounded=0;strokeWidth=1;entryX=0;entryY=0.025;entryDx=0;entryDy=0;entryPerimeter=0;" edge="1" parent="1">
          <mxGeometry width="50" height="50" relative="1" as="geometry">
            <mxPoint x="370" y="1078.76" as="sourcePoint" />
            <mxPoint x="479.9999999999999" y="1078.76" as="targetPoint" />
          </mxGeometry>
        </mxCell>
      </root>
    </mxGraphModel>
  </diagram>
</mxfile>
